<svg xmlns="http://www.w3.org/2000/svg" width="64" height="64" viewBox="0 0 64 64"><path fill="#000" d="M0 13.33v-5.33c0-.72.26-1.35.79-1.88.53-.52 1.15-.79 1.88-.79h58.66c.72 0 1.35.26 1.88.79.53.53.79 1.16.79 1.88v5.33c0 .72-.26 1.35-.79 1.88-.53.53-1.16.79-1.88.79h-58.66c-.72 0-1.35-.26-1.88-.79-.53-.53-.79-1.15-.79-1.88zm0 21.34v-5.33c0-.72.26-1.35.79-1.88.53-.53 1.15-.79 1.88-.79h58.66c.72 0 1.35.26 1.88.79.53.53.79 1.15.79 1.88v5.33c0 .72-.26 1.35-.79 1.88-.53.53-1.16.79-1.88.79h-58.66c-.72 0-1.35-.26-1.88-.79-.53-.53-.79-1.16-.79-1.88zm0 21.33v-5.34c0-.72.26-1.34.79-1.87.53-.52 1.15-.79 1.88-.79h58.66c.72 0 1.35.26 1.88.79.53.53.79 1.15.79 1.87v5.34c0 .72-.26 1.34-.79 1.87s-1.16.79-1.88.79h-58.66c-.72 0-1.35-.26-1.88-.79-.53-.53-.79-1.15-.79-1.87z"/></svg>
