<svg xmlns="http://www.w3.org/2000/svg" width="64" height="64" viewBox="0 0 64 64"><path fill="#000" d="M0 61.33v-18.66c0-.72.26-1.34.79-1.88.53-.53 1.15-.79 1.88-.79s1.35.26 1.88.79l6 6 13.83-13.83c.28-.28.6-.42.96-.42s.68.14.96.42l4.75 4.75c.28.28.42.6.42.96s-.14.68-.42.96l-13.84 13.83 6 6c.53.53.79 1.15.79 1.88s-.26 1.35-.79 1.88c-.53.51-1.15.78-1.88.78h-18.66c-.72 0-1.35-.27-1.88-.79s-.79-1.16-.79-1.88zm32.54-36c0-.36.14-.68.42-.96l13.83-13.83-6-6c-.53-.53-.79-1.15-.79-1.87 0-.72.26-1.35.79-1.88.53-.53 1.15-.79 1.88-.79h18.67c.72 0 1.35.26 1.88.79.52.53.78 1.16.78 1.88v18.67c0 .72-.26 1.35-.79 1.87-.53.53-1.15.79-1.88.79s-1.35-.26-1.88-.79l-6-6-13.83 13.83c-.27.28-.6.42-.96.42s-.68-.14-.96-.42l-4.75-4.75c-.27-.28-.41-.59-.41-.96z"/></svg>
