<svg xmlns="http://www.w3.org/2000/svg" width="64" height="64" viewBox="0 0 64 64"><path fill="#000" d="M0 32.2c.03-.36.17-.64.44-.85l28.54-23.78c.85-.69 1.85-1.03 3.02-1.03 1.16 0 2.17.35 3.01 1.03l9.69 8.1v-7.75c0-.37.12-.67.36-.91s.54-.36.91-.36h7.62c.37 0 .68.12.92.36s.36.54.36.91v16.2l8.7 7.22c.26.21.41.5.43.85.03.36-.07.67-.28.93l-2.46 2.94c-.21.24-.49.38-.83.43h-.13c-.35 0-.62-.09-.83-.28l-27.47-22.89-27.47 22.91c-.32.22-.64.3-.95.28-.34-.05-.62-.2-.83-.43l-2.46-2.94c-.22-.27-.31-.58-.29-.94zm9.14 22.73v-19.06l.02-.12.02-.12 22.82-18.81 22.82 18.82c.03.05.04.13.04.23v19.06c0 .69-.25 1.28-.75 1.78s-1.1.76-1.79.76h-15.24v-15.25h-10.16v15.24h-15.24c-.69 0-1.28-.25-1.78-.76-.51-.49-.76-1.08-.76-1.77z"/></svg>
