<svg xmlns="http://www.w3.org/2000/svg" width="64" height="64" viewBox="0 0 64 64"><path fill="#000" d="M2.13 37.6c-1.42-3.35-2.13-6.85-2.13-10.52s.71-7.17 2.13-10.52c1.42-3.35 3.35-6.23 5.77-8.65 2.42-2.42 5.31-4.35 8.65-5.77 3.35-1.43 6.86-2.14 10.53-2.14 3.66 0 7.17.71 10.52 2.13 3.35 1.42 6.23 3.35 8.65 5.77 2.42 2.42 4.35 5.31 5.77 8.65 1.42 3.35 2.13 6.85 2.13 10.52 0 5.64-1.59 10.75-4.77 15.35l13.19 13.19c.95.95 1.42 2.1 1.42 3.46s-.48 2.52-1.44 3.48-2.12 1.45-3.47 1.45c-1.38 0-2.54-.49-3.46-1.46l-13.2-13.16c-4.59 3.18-9.71 4.77-15.35 4.77-3.67 0-7.17-.71-10.52-2.13-3.35-1.42-6.23-3.35-8.65-5.77-2.42-2.42-4.34-5.31-5.77-8.65zm12.77-22.7c-3.38 3.37-5.06 7.43-5.06 12.17s1.68 8.8 5.06 12.17c3.37 3.37 7.43 5.06 12.17 5.06s8.8-1.69 12.17-5.06c3.37-3.37 5.06-7.43 5.06-12.17s-1.69-8.8-5.06-12.17c-3.38-3.37-7.43-5.06-12.17-5.06-4.74.01-8.8 1.69-12.17 5.06zm-.13 13.41v-2.46c0-.33.12-.62.37-.87.24-.25.53-.37.87-.37h8.62v-8.61c0-.33.12-.62.37-.87.24-.25.53-.37.87-.37h2.46c.33 0 .62.12.87.37.24.25.37.53.37.87v8.62h8.62c.33 0 .62.12.87.37.24.25.37.53.37.87v2.46c0 .33-.12.62-.37.87s-.53.37-.87.37h-8.62v8.62c0 .33-.12.62-.37.87s-.53.37-.87.37h-2.46c-.34 0-.62-.12-.87-.37s-.37-.53-.37-.87v-8.62h-8.63c-.34 0-.62-.12-.87-.37-.24-.26-.36-.55-.36-.88z"/></svg>
